HIERARCHY
ROOT Hips
{
	OFFSET 0.000000 0.000000 0.000000
	CHANNELS 6 Xposition Yposition Zposition Zrotation Yrotation Xrotation 
	JOINT LowerBack
	{
		OFFSET 0.000000 0.000000 0.000000
		CHANNELS 3 Zrotation Yrotation Xrotation
		JOINT Spine
		{
			OFFSET 0.028270 2.035590 -0.193380
			CHANNELS 3 Zrotation Yrotation Xrotation
			JOINT Spine1
			{
				OFFSET 0.056720 2.048850 -0.042750
				CHANNELS 3 Zrotation Yrotation Xrotation
				JOINT Neck
				{
					OFFSET 0.000000 0.000000 0.000000
					CHANNELS 3 Zrotation Yrotation Xrotation
					JOINT Neck1
					{
						OFFSET -0.054170 1.746240 0.172020
						CHANNELS 3 Zrotation Yrotation Xrotation
						JOINT Head
						{
							OFFSET 0.104070 1.761360 -0.123970
							CHANNELS 3 Zrotation Yrotation Xrotation
							End Site
							{
								OFFSET 0.000000 0.000000 0.000000
							}
						}
					}
				}
				JOINT LeftShoulder
				{
					OFFSET 0.000000 0.000000 0.000000
					CHANNELS 3 Zrotation Yrotation Xrotation
					JOINT LeftArm
					{
						OFFSET 3.362410 1.200890 -0.311210
						CHANNELS 3 Zrotation Yrotation Xrotation
						JOINT LeftForeArm
						{
							OFFSET 4.983000 -0.000000 -0.000000
							CHANNELS 3 Zrotation Yrotation Xrotation
							JOINT LeftHand
							{
								OFFSET 3.483560 -0.000000 -0.000000
								CHANNELS 3 Zrotation Yrotation Xrotation
								JOINT LeftFingerBase
								{
									OFFSET 0.000000 0.000000 0.000000
									CHANNELS 3 Zrotation Yrotation Xrotation
									JOINT LeftHandIndex1
									{
										OFFSET 0.715260 -0.000000 -0.000000
										CHANNELS 3 Zrotation Yrotation Xrotation
										End Site
										{
											OFFSET 0.000000 0.000000 0.000000
										}
									}
								}
								JOINT LThumb
								{
									OFFSET 0.000000 0.000000 0.000000
									CHANNELS 3 Zrotation Yrotation Xrotation
									End Site
									{
										OFFSET 0.000000 0.000000 0.000000
									}
								}
							}
						}
					}
				}
				JOINT RightShoulder
				{
					OFFSET 0.000000 0.000000 0.000000
					CHANNELS 3 Zrotation Yrotation Xrotation
					JOINT RightArm
					{
						OFFSET -3.136600 1.374050 -0.404650
						CHANNELS 3 Zrotation Yrotation Xrotation
						JOINT RightForeArm
						{
							OFFSET -5.241900 -0.000000 -0.000000
							CHANNELS 3 Zrotation Yrotation Xrotation
							JOINT RightHand
							{
								OFFSET -3.444170 -0.000000 -0.000000
								CHANNELS 3 Zrotation Yrotation Xrotation
								JOINT RightFingerBase
								{
									OFFSET 0.000000 0.000000 0.000000
									CHANNELS 3 Zrotation Yrotation Xrotation
									JOINT RightHandIndex1
									{
										OFFSET -0.622530 -0.000000 -0.000000
										CHANNELS 3 Zrotation Yrotation Xrotation
										End Site
										{
											OFFSET 0.000000 0.000000 0.000000
										}
									}
								}
								JOINT RThumb
								{
									OFFSET 0.000000 0.000000 0.000000
									CHANNELS 3 Zrotation Yrotation Xrotation
									End Site
									{
										OFFSET 0.000000 0.000000 0.000000
									}
								}
							}
						}
					}
				}
			}
		}
	}
}
}
MOTION
Frames: 6
Frame Time: 0.008333
2.110705 16.572039 -0.246233 168.041425 -85.685773 -143.225991 -4.539265 0.565673 5.187233 -2.024773 0.786736 -2.229297 -7.218737 0.649206 -0.134547 8.180734 4.416243 -2.061949 -4.733435 -0.375895 1.110468 0.000000 0.000000 0.000000 -6.689056 4.855705 3.375223 -61.077567 -3.972679 9.040484 -3.753174 -29.284234 -0.011371 -3.889134 9.149259 -0.302090 -0.093924 0.041157 -0.000000 0.000000 0.000000 0.000000 0.000000 0.000000 0.000000 19.340319 6.546627 1.237411 67.403138 23.658698 4.869841 2.493090 27.912236 0.008486 0.980441 8.631261 0.073961 0.028519 -0.194704 0.000000 0.000000 0.000000 0.000000 0.000000 0.000000 0.000000 
1.977815 16.582754 -0.215436 165.740262 -85.632777 -140.757111 -4.778506 0.497743 5.276191 -2.077295 0.728064 -2.216363 -7.233020 0.588960 -0.152680 8.241761 4.373005 -2.094151 -4.732354 -0.375324 1.097451 0.000000 0.000000 0.000000 -6.567594 4.651087 3.390676 -61.204113 -4.254505 9.005830 -3.765827 -28.952135 -0.011249 -3.937844 9.230497 -0.308690 -0.093331 0.043003 -0.000000 0.000000 0.000000 0.000000 0.000000 0.000000 0.000000 19.409970 6.422750 1.252502 67.737955 22.462782 4.408603 2.484600 27.588734 0.008312 0.932694 8.573899 0.069759 0.029055 -0.190967 0.000000 0.000000 0.000000 0.000000 0.000000 0.000000 0.000000 
1.846439 16.592443 -0.182699 164.333503 -85.530998 -139.138633 -4.966130 0.442176 5.330095 -2.119265 0.679266 -2.207989 -7.244436 0.538656 -0.162048 8.273368 4.314851 -2.140506 -4.729510 -0.374567 1.081376 0.000000 0.000000 0.000000 -6.468002 4.490044 3.399557 -61.326212 -4.548019 9.024492 -3.772309 -28.739805 -0.011122 -3.982289 9.309345 -0.314990 -0.092673 0.044657 -0.000000 0.000000 0.000000 0.000000 0.000000 0.000000 0.000000 19.446885 6.296342 1.270567 68.056539 21.313667 3.985638 2.480895 27.235775 0.008197 0.894980 8.489285 0.066157 0.029825 -0.187082 0.000000 0.000000 0.000000 0.000000 0.000000 0.000000 0.000000 
1.716812 16.600800 -0.148101 163.834867 -85.394319 -138.381496 -5.095206 0.395741 5.346458 -2.148660 0.637168 -2.206660 -7.254066 0.494728 -0.170143 8.278472 4.269735 -2.191015 -4.725496 -0.373742 1.065075 0.000000 0.000000 0.000000 -6.396029 4.355889 3.405686 -61.433685 -4.822649 9.095281 -3.771488 -28.675529 -0.010993 -4.017470 9.384786 -0.320386 -0.091950 0.046103 -0.000000 0.000000 0.000000 0.000000 0.000000 0.000000 0.000000 19.452587 6.194527 1.293341 68.353396 20.183830 3.564454 2.481218 26.876490 0.008157 0.892972 8.361939 0.064954 0.030504 -0.183028 0.000000 0.000000 0.000000 0.000000 0.000000 0.000000 0.000000 
1.588974 16.607699 -0.112597 163.929765 -85.236986 -138.168036 -5.181467 0.350382 5.327354 -2.169023 0.594606 -2.209212 -7.265003 0.450415 -0.167358 8.270461 4.205753 -2.257844 -4.722901 -0.372900 1.044870 0.000000 0.000000 0.000000 -6.345674 4.266221 3.407564 -61.512821 -5.109092 9.243665 -3.765093 -28.754824 -0.010868 -4.037792 9.447458 -0.324282 -0.091269 0.047377 -0.000000 0.000000 0.000000 0.000000 0.000000 0.000000 0.000000 19.458312 6.079729 1.320227 68.617470 19.128032 3.198904 2.487722 26.484392 0.008197 0.923795 8.197856 0.065852 0.031217 -0.178709 0.000000 0.000000 0.000000 0.000000 0.000000 0.000000 0.000000 
1.463266 16.613217 -0.076629 164.512912 -85.070093 -138.397506 -5.224654 0.303441 5.278668 -2.180362 0.548997 -2.216310 -7.278628 0.402870 -0.160748 8.255762 4.143046 -2.332588 -4.722343 -0.372135 1.022931 0.000000 0.000000 0.000000 -6.318202 4.200663 3.408790 -61.552982 -5.387602 9.463317 -3.752727 -28.989455 -0.010738 -4.039372 9.490003 -0.325876 -0.090640 0.048522 -0.000000 0.000000 0.000000 0.000000 0.000000 0.000000 0.000000 19.470239 5.970496 1.352771 68.844360 18.125782 2.855297 2.498874 26.077717 0.008313 1.001491 7.996156 0.069748 0.031706 -0.174207 0.000000 0.000000 0.000000 0.000000 0.000000 0.000000 0.000000 
